<?xml version="1.0" standalone="no"?><!DOCTYPE svg PUBLIC "-//W3C//DTD SVG 1.1//EN" "http://www.w3.org/Graphics/SVG/1.1/DTD/svg11.dtd"><svg t="1571899905992" class="icon" viewBox="0 0 1024 1024" version="1.1" xmlns="http://www.w3.org/2000/svg" p-id="5330" xmlns:xlink="http://www.w3.org/1999/xlink" width="200" height="200"><defs><style type="text/css"></style></defs><path d="M855 279H702.3c11.2-17.9 18-38.9 18-61.6 0-64.4-52.4-116.7-116.7-116.7-36.3 0-68.4 17-89.8 43.1-21.4-26.1-53.5-43.1-89.8-43.1-64.4 0-116.8 52.4-116.8 116.7 0 22.7 6.8 43.7 18 61.6H171c-39.7 0-72 32.3-72 72v89.6c0 35.2 26 63.3 59.4 69.4v335.4c0 45.9 37.3 83.2 83.2 83.2h542.5c45.9 0 83.2-37.3 83.2-83.2V509.9c33.5-6.1 59.4-34.2 59.4-69.4v-89.6c0.2-39.7-32.1-71.9-71.7-71.9z m-403.5 55.2h123.1v123.1H451.5V334.2z m90.4-116.8c0-33.9 27.6-61.5 61.5-61.5s61.5 27.6 61.5 61.5c0 34-27.6 61.6-61.5 61.6-14.8 0-41.4-0.7-61.5-1.3v-60.3z m-118-61.6c33.9 0 61.5 27.6 61.5 61.5v60.2c-20.1 0.6-46.7 1.3-61.5 1.3-34 0-61.6-27.6-61.6-61.6 0-33.7 27.6-61.4 61.6-61.4zM154.3 350.9c0-9.1 7.7-16.8 16.8-16.8h225.2v123.1H171c-9.1 0-16.8-7.7-16.8-16.8v-89.5z m87.4 522.4c-15.4 0-28-12.6-28-28V512.4h182.5v360.9H241.7z m209.8 0V512.4h123.1v360.9H451.5z m360.8-28c0 15.4-12.6 28-28 28H629.7V512.4h182.5v332.9z m59.4-404.8c0 9.1-7.7 16.8-16.8 16.8H629.7V334.2H855c9.1 0 16.8 7.7 16.8 16.8v89.5z" p-id="5331" fill="#979797"></path></svg>