<?xml version="1.0" standalone="no"?><!DOCTYPE svg PUBLIC "-//W3C//DTD SVG 1.1//EN" "http://www.w3.org/Graphics/SVG/1.1/DTD/svg11.dtd"><svg t="1568704562144" class="icon" viewBox="0 0 1024 1024" version="1.1" xmlns="http://www.w3.org/2000/svg" p-id="2405" xmlns:xlink="http://www.w3.org/1999/xlink" width="200" height="200"><defs><style type="text/css"></style></defs><path d="M714.46 867.5c-90 0-163.26-73.24-163.26-163.25a164.49 164.49 0 0 1 2.49-28.51 11.53 11.53 0 0 0-0.39-5.39 11.68 11.68 0 0 0-14.62-7.59l-11.37 3.59a20 20 0 1 1-12-38.14l11.37-3.59a51.64 51.64 0 0 1 66.45 58.06A123.27 123.27 0 1 0 714.46 581H472.8v123.25c0 90-73.24 163.25-163.26 163.25s-163.25-73.24-163.25-163.25S219.52 541 309.54 541H432.8v-58H309.54c-90 0-163.25-73.23-163.25-163.25S219.52 156.5 309.54 156.5 472.8 229.74 472.8 319.75V443h229.65a115.73 115.73 0 0 0 115.6-115.6V196.5H687.14a115.73 115.73 0 0 0-115.6 115.6V368a20 20 0 0 1-40 0v-55.9c0-85.8 69.8-155.6 155.6-155.6h150.91a20 20 0 0 1 20 20v150.91c0 85.8-69.8 155.6-155.6 155.6H472.8v58h241.66c90 0 163.25 73.23 163.25 163.25S804.48 867.5 714.46 867.5zM309.54 581A123.26 123.26 0 1 0 432.8 704.25V581z m0-384.49a123.26 123.26 0 0 0 0 246.51H432.8V319.75A123.39 123.39 0 0 0 309.54 196.5z" p-id="2406" fill="#979797"></path></svg>